<svg width="170" height="171" viewBox="0 0 170 171" fill="none" xmlns="http://www.w3.org/2000/svg">
<circle cx="85" cy="85" r="85" fill="#D9D9D9"/>
<path d="M46.7307 77V68.6H47.9307V77H46.7307ZM58.2335 70.58C58.7455 70.58 59.1975 70.68 59.5895 70.88C59.9815 71.08 60.2855 71.384 60.5015 71.792C60.7255 72.2 60.8375 72.716 60.8375 73.34V77H59.6855V73.472C59.6855 72.856 59.5415 72.392 59.2535 72.08C58.9655 71.768 58.5615 71.612 58.0415 71.612C57.6575 71.612 57.3215 71.692 57.0335 71.852C56.7455 72.012 56.5215 72.248 56.3615 72.56C56.2095 72.872 56.1335 73.26 56.1335 73.724V77H54.9815V73.472C54.9815 72.856 54.8375 72.392 54.5495 72.08C54.2695 71.768 53.8655 71.612 53.3375 71.612C52.9615 71.612 52.6295 71.692 52.3415 71.852C52.0535 72.012 51.8295 72.248 51.6695 72.56C51.5095 72.872 51.4295 73.26 51.4295 73.724V77H50.2775V70.64H51.3815V72.332L51.2015 71.9C51.4015 71.484 51.7095 71.16 52.1255 70.928C52.5415 70.696 53.0255 70.58 53.5775 70.58C54.1855 70.58 54.7095 70.732 55.1495 71.036C55.5895 71.332 55.8775 71.784 56.0135 72.392L55.5455 72.2C55.7375 71.712 56.0735 71.32 56.5535 71.024C57.0335 70.728 57.5935 70.58 58.2335 70.58ZM66.9052 77V75.656L66.8452 75.404V73.112C66.8452 72.624 66.7012 72.248 66.4132 71.984C66.1332 71.712 65.7092 71.576 65.1412 71.576C64.7652 71.576 64.3972 71.64 64.0372 71.768C63.6772 71.888 63.3732 72.052 63.1252 72.26L62.6452 71.396C62.9732 71.132 63.3652 70.932 63.8212 70.796C64.2852 70.652 64.7692 70.58 65.2732 70.58C66.1452 70.58 66.8172 70.792 67.2892 71.216C67.7612 71.64 67.9972 72.288 67.9972 73.16V77H66.9052ZM64.8172 77.072C64.3452 77.072 63.9292 76.992 63.5692 76.832C63.2172 76.672 62.9452 76.452 62.7532 76.172C62.5612 75.884 62.4652 75.56 62.4652 75.2C62.4652 74.856 62.5452 74.544 62.7052 74.264C62.8732 73.984 63.1412 73.76 63.5092 73.592C63.8852 73.424 64.3892 73.34 65.0212 73.34H67.0372V74.168H65.0692C64.4932 74.168 64.1052 74.264 63.9052 74.456C63.7052 74.648 63.6052 74.88 63.6052 75.152C63.6052 75.464 63.7292 75.716 63.9772 75.908C64.2252 76.092 64.5692 76.184 65.0092 76.184C65.4412 76.184 65.8172 76.088 66.1372 75.896C66.4652 75.704 66.7012 75.424 66.8452 75.056L67.0732 75.848C66.9212 76.224 66.6532 76.524 66.2692 76.748C65.8852 76.964 65.4012 77.072 64.8172 77.072ZM72.9131 79.4C72.3291 79.4 71.7611 79.316 71.2091 79.148C70.6651 78.988 70.2211 78.756 69.8771 78.452L70.4291 77.564C70.7251 77.82 71.0891 78.02 71.5211 78.164C71.9531 78.316 72.4051 78.392 72.8771 78.392C73.6291 78.392 74.1811 78.216 74.5331 77.864C74.8851 77.512 75.0611 76.976 75.0611 76.256V74.912L75.1811 73.652L75.1211 72.38V70.64H76.2131V76.136C76.2131 77.256 75.9331 78.08 75.3731 78.608C74.8131 79.136 73.9931 79.4 72.9131 79.4ZM72.7691 76.736C72.1531 76.736 71.6011 76.608 71.1131 76.352C70.6331 76.088 70.2491 75.724 69.9611 75.26C69.6811 74.796 69.5411 74.26 69.5411 73.652C69.5411 73.036 69.6811 72.5 69.9611 72.044C70.2491 71.58 70.6331 71.22 71.1131 70.964C71.6011 70.708 72.1531 70.58 72.7691 70.58C73.3131 70.58 73.8091 70.692 74.2571 70.916C74.7051 71.132 75.0611 71.468 75.3251 71.924C75.5971 72.38 75.7331 72.956 75.7331 73.652C75.7331 74.34 75.5971 74.912 75.3251 75.368C75.0611 75.824 74.7051 76.168 74.2571 76.4C73.8091 76.624 73.3131 76.736 72.7691 76.736ZM72.9011 75.728C73.3251 75.728 73.7011 75.64 74.0291 75.464C74.3571 75.288 74.6131 75.044 74.7971 74.732C74.9891 74.42 75.0851 74.06 75.0851 73.652C75.0851 73.244 74.9891 72.884 74.7971 72.572C74.6131 72.26 74.3571 72.02 74.0291 71.852C73.7011 71.676 73.3251 71.588 72.9011 71.588C72.4771 71.588 72.0971 71.676 71.7611 71.852C71.4331 72.02 71.1731 72.26 70.9811 72.572C70.7971 72.884 70.7051 73.244 70.7051 73.652C70.7051 74.06 70.7971 74.42 70.9811 74.732C71.1731 75.044 71.4331 75.288 71.7611 75.464C72.0971 75.64 72.4771 75.728 72.9011 75.728ZM81.2463 77.072C80.5663 77.072 79.9663 76.932 79.4463 76.652C78.9343 76.372 78.5343 75.988 78.2463 75.5C77.9663 75.012 77.8263 74.452 77.8263 73.82C77.8263 73.188 77.9623 72.628 78.2343 72.14C78.5143 71.652 78.8943 71.272 79.3743 71C79.8623 70.72 80.4103 70.58 81.0183 70.58C81.6343 70.58 82.1783 70.716 82.6503 70.988C83.1223 71.26 83.4903 71.644 83.7543 72.14C84.0263 72.628 84.1623 73.2 84.1623 73.856C84.1623 73.904 84.1583 73.96 84.1503 74.024C84.1503 74.088 84.1463 74.148 84.1383 74.204H78.7263V73.376H83.5383L83.0703 73.664C83.0783 73.256 82.9943 72.892 82.8183 72.572C82.6423 72.252 82.3983 72.004 82.0863 71.828C81.7823 71.644 81.4263 71.552 81.0183 71.552C80.6183 71.552 80.2623 71.644 79.9503 71.828C79.6383 72.004 79.3943 72.256 79.2183 72.584C79.0423 72.904 78.9543 73.272 78.9543 73.688V73.88C78.9543 74.304 79.0503 74.684 79.2423 75.02C79.4423 75.348 79.7183 75.604 80.0703 75.788C80.4223 75.972 80.8263 76.064 81.2823 76.064C81.6583 76.064 81.9983 76 82.3023 75.872C82.6143 75.744 82.8863 75.552 83.1183 75.296L83.7543 76.04C83.4663 76.376 83.1063 76.632 82.6743 76.808C82.2503 76.984 81.7743 77.072 81.2463 77.072ZM93.7179 70.58C94.2299 70.58 94.6819 70.68 95.0739 70.88C95.4659 71.08 95.7699 71.384 95.9859 71.792C96.2099 72.2 96.3219 72.716 96.3219 73.34V77H95.1699V73.472C95.1699 72.856 95.0259 72.392 94.7379 72.08C94.4499 71.768 94.0459 71.612 93.5259 71.612C93.1419 71.612 92.8059 71.692 92.5179 71.852C92.2299 72.012 92.0059 72.248 91.8459 72.56C91.6939 72.872 91.6179 73.26 91.6179 73.724V77H90.4659V73.472C90.4659 72.856 90.3219 72.392 90.0339 72.08C89.7539 71.768 89.3499 71.612 88.8219 71.612C88.4459 71.612 88.1139 71.692 87.8259 71.852C87.5379 72.012 87.3139 72.248 87.1539 72.56C86.9939 72.872 86.9139 73.26 86.9139 73.724V77H85.7619V70.64H86.8659V72.332L86.6859 71.9C86.8859 71.484 87.1939 71.16 87.6099 70.928C88.0259 70.696 88.5099 70.58 89.0619 70.58C89.6699 70.58 90.1939 70.732 90.6339 71.036C91.0739 71.332 91.3619 71.784 91.4979 72.392L91.0299 72.2C91.2219 71.712 91.5579 71.32 92.0379 71.024C92.5179 70.728 93.0779 70.58 93.7179 70.58ZM105.06 70.58C105.58 70.58 106.036 70.68 106.428 70.88C106.828 71.08 107.14 71.384 107.364 71.792C107.588 72.2 107.7 72.716 107.7 73.34V77H106.548V73.472C106.548 72.856 106.396 72.392 106.092 72.08C105.796 71.768 105.376 71.612 104.832 71.612C104.424 71.612 104.068 71.692 103.764 71.852C103.46 72.012 103.224 72.248 103.056 72.56C102.896 72.872 102.816 73.26 102.816 73.724V77H101.664V70.64H102.768V72.356L102.588 71.9C102.796 71.484 103.116 71.16 103.548 70.928C103.98 70.696 104.484 70.58 105.06 70.58ZM113.78 77V75.656L113.72 75.404V73.112C113.72 72.624 113.576 72.248 113.288 71.984C113.008 71.712 112.584 71.576 112.016 71.576C111.64 71.576 111.272 71.64 110.912 71.768C110.552 71.888 110.248 72.052 110 72.26L109.52 71.396C109.848 71.132 110.24 70.932 110.696 70.796C111.16 70.652 111.644 70.58 112.148 70.58C113.02 70.58 113.692 70.792 114.164 71.216C114.636 71.64 114.872 72.288 114.872 73.16V77H113.78ZM111.692 77.072C111.22 77.072 110.804 76.992 110.444 76.832C110.092 76.672 109.82 76.452 109.628 76.172C109.436 75.884 109.34 75.56 109.34 75.2C109.34 74.856 109.42 74.544 109.58 74.264C109.748 73.984 110.016 73.76 110.384 73.592C110.76 73.424 111.264 73.34 111.896 73.34H113.912V74.168H111.944C111.368 74.168 110.98 74.264 110.78 74.456C110.58 74.648 110.48 74.88 110.48 75.152C110.48 75.464 110.604 75.716 110.852 75.908C111.1 76.092 111.444 76.184 111.884 76.184C112.316 76.184 112.692 76.088 113.012 75.896C113.34 75.704 113.576 75.424 113.72 75.056L113.948 75.848C113.796 76.224 113.528 76.524 113.144 76.748C112.76 76.964 112.276 77.072 111.692 77.072ZM113.072 69.68C112.88 69.68 112.708 69.64 112.556 69.56C112.412 69.48 112.28 69.388 112.16 69.284C112.04 69.172 111.924 69.076 111.812 68.996C111.7 68.916 111.588 68.876 111.476 68.876C111.3 68.876 111.156 68.944 111.044 69.08C110.94 69.208 110.88 69.388 110.864 69.62H110.216C110.232 69.172 110.344 68.816 110.552 68.552C110.76 68.288 111.04 68.156 111.392 68.156C111.584 68.156 111.756 68.2 111.908 68.288C112.06 68.368 112.196 68.464 112.316 68.576C112.436 68.68 112.548 68.772 112.652 68.852C112.764 68.932 112.876 68.972 112.988 68.972C113.164 68.972 113.308 68.908 113.42 68.78C113.532 68.652 113.592 68.476 113.6 68.252H114.248C114.24 68.676 114.128 69.02 113.912 69.284C113.704 69.548 113.424 69.68 113.072 69.68ZM119.728 77.072C119.088 77.072 118.52 76.932 118.024 76.652C117.528 76.372 117.136 75.988 116.848 75.5C116.56 75.004 116.416 74.444 116.416 73.82C116.416 73.188 116.56 72.628 116.848 72.14C117.136 71.652 117.528 71.272 118.024 71C118.52 70.72 119.088 70.58 119.728 70.58C120.36 70.58 120.924 70.72 121.42 71C121.924 71.272 122.316 71.652 122.596 72.14C122.884 72.62 123.028 73.18 123.028 73.82C123.028 74.452 122.884 75.012 122.596 75.5C122.316 75.988 121.924 76.372 121.42 76.652C120.924 76.932 120.36 77.072 119.728 77.072ZM119.728 76.064C120.136 76.064 120.5 75.972 120.82 75.788C121.148 75.604 121.404 75.344 121.588 75.008C121.772 74.664 121.864 74.268 121.864 73.82C121.864 73.364 121.772 72.972 121.588 72.644C121.404 72.308 121.148 72.048 120.82 71.864C120.5 71.68 120.136 71.588 119.728 71.588C119.32 71.588 118.956 71.68 118.636 71.864C118.316 72.048 118.06 72.308 117.868 72.644C117.676 72.972 117.58 73.364 117.58 73.82C117.58 74.268 117.676 74.664 117.868 75.008C118.06 75.344 118.316 75.604 118.636 75.788C118.956 75.972 119.32 76.064 119.728 76.064ZM41.2747 92.072C40.6587 92.072 40.1067 91.936 39.6187 91.664C39.1387 91.392 38.7587 91.012 38.4787 90.524C38.1987 90.036 38.0587 89.468 38.0587 88.82C38.0587 88.172 38.1987 87.608 38.4787 87.128C38.7587 86.64 39.1387 86.26 39.6187 85.988C40.1067 85.716 40.6587 85.58 41.2747 85.58C41.8107 85.58 42.2947 85.7 42.7267 85.94C43.1587 86.18 43.5027 86.54 43.7587 87.02C44.0227 87.5 44.1547 88.1 44.1547 88.82C44.1547 89.54 44.0267 90.14 43.7707 90.62C43.5227 91.1 43.1827 91.464 42.7507 91.712C42.3187 91.952 41.8267 92.072 41.2747 92.072ZM41.3707 91.064C41.7707 91.064 42.1307 90.972 42.4507 90.788C42.7787 90.604 43.0347 90.344 43.2187 90.008C43.4107 89.664 43.5067 89.268 43.5067 88.82C43.5067 88.364 43.4107 87.972 43.2187 87.644C43.0347 87.308 42.7787 87.048 42.4507 86.864C42.1307 86.68 41.7707 86.588 41.3707 86.588C40.9627 86.588 40.5987 86.68 40.2787 86.864C39.9587 87.048 39.7027 87.308 39.5107 87.644C39.3187 87.972 39.2227 88.364 39.2227 88.82C39.2227 89.268 39.3187 89.664 39.5107 90.008C39.7027 90.344 39.9587 90.604 40.2787 90.788C40.5987 90.972 40.9627 91.064 41.3707 91.064ZM43.5427 92V90.284L43.6147 88.808L43.4947 87.332V83.096H44.6467V92H43.5427ZM46.8264 92V85.64H47.9784V92H46.8264ZM47.4024 84.416C47.1784 84.416 46.9904 84.344 46.8384 84.2C46.6944 84.056 46.6224 83.88 46.6224 83.672C46.6224 83.456 46.6944 83.276 46.8384 83.132C46.9904 82.988 47.1784 82.916 47.4024 82.916C47.6264 82.916 47.8104 82.988 47.9544 83.132C48.1064 83.268 48.1824 83.44 48.1824 83.648C48.1824 83.864 48.1104 84.048 47.9664 84.2C47.8224 84.344 47.6344 84.416 47.4024 84.416ZM52.0019 92.072C51.4739 92.072 50.9699 92 50.4899 91.856C50.0179 91.712 49.6459 91.536 49.3739 91.328L49.8539 90.416C50.1259 90.6 50.4619 90.756 50.8619 90.884C51.2619 91.012 51.6699 91.076 52.0859 91.076C52.6219 91.076 53.0059 91 53.2379 90.848C53.4779 90.696 53.5979 90.484 53.5979 90.212C53.5979 90.012 53.5259 89.856 53.3819 89.744C53.2379 89.632 53.0459 89.548 52.8059 89.492C52.5739 89.436 52.3139 89.388 52.0259 89.348C51.7379 89.3 51.4499 89.244 51.1619 89.18C50.8739 89.108 50.6099 89.012 50.3699 88.892C50.1299 88.764 49.9379 88.592 49.7939 88.376C49.6499 88.152 49.5779 87.856 49.5779 87.488C49.5779 87.104 49.6859 86.768 49.9019 86.48C50.1179 86.192 50.4219 85.972 50.8139 85.82C51.2139 85.66 51.6859 85.58 52.2299 85.58C52.6459 85.58 53.0659 85.632 53.4899 85.736C53.9219 85.832 54.2739 85.972 54.5459 86.156L54.0539 87.068C53.7659 86.876 53.4659 86.744 53.1539 86.672C52.8419 86.6 52.5299 86.564 52.2179 86.564C51.7139 86.564 51.3379 86.648 51.0899 86.816C50.8419 86.976 50.7179 87.184 50.7179 87.44C50.7179 87.656 50.7899 87.824 50.9339 87.944C51.0859 88.056 51.2779 88.144 51.5099 88.208C51.7499 88.272 52.0139 88.328 52.3019 88.376C52.5899 88.416 52.8779 88.472 53.1659 88.544C53.4539 88.608 53.7139 88.7 53.9459 88.82C54.1859 88.94 54.3779 89.108 54.5219 89.324C54.6739 89.54 54.7499 89.828 54.7499 90.188C54.7499 90.572 54.6379 90.904 54.4139 91.184C54.1899 91.464 53.8739 91.684 53.4659 91.844C53.0579 91.996 52.5699 92.072 52.0019 92.072ZM59.5617 92.072C59.0337 92.072 58.5497 91.952 58.1097 91.712C57.6777 91.464 57.3297 91.1 57.0657 90.62C56.8097 90.14 56.6817 89.54 56.6817 88.82C56.6817 88.1 56.8057 87.5 57.0537 87.02C57.3097 86.54 57.6537 86.18 58.0857 85.94C58.5257 85.7 59.0177 85.58 59.5617 85.58C60.1857 85.58 60.7377 85.716 61.2177 85.988C61.6977 86.26 62.0777 86.64 62.3577 87.128C62.6377 87.608 62.7777 88.172 62.7777 88.82C62.7777 89.468 62.6377 90.036 62.3577 90.524C62.0777 91.012 61.6977 91.392 61.2177 91.664C60.7377 91.936 60.1857 92.072 59.5617 92.072ZM56.1897 94.328V85.64H57.2937V87.356L57.2217 88.832L57.3417 90.308V94.328H56.1897ZM59.4657 91.064C59.8737 91.064 60.2377 90.972 60.5577 90.788C60.8857 90.604 61.1417 90.344 61.3257 90.008C61.5177 89.664 61.6137 89.268 61.6137 88.82C61.6137 88.364 61.5177 87.972 61.3257 87.644C61.1417 87.308 60.8857 87.048 60.5577 86.864C60.2377 86.68 59.8737 86.588 59.4657 86.588C59.0657 86.588 58.7017 86.68 58.3737 86.864C58.0537 87.048 57.7977 87.308 57.6057 87.644C57.4217 87.972 57.3297 88.364 57.3297 88.82C57.3297 89.268 57.4217 89.664 57.6057 90.008C57.7977 90.344 58.0537 90.604 58.3737 90.788C58.7017 90.972 59.0657 91.064 59.4657 91.064ZM67.0933 92.072C66.4533 92.072 65.8853 91.932 65.3893 91.652C64.8933 91.372 64.5013 90.988 64.2133 90.5C63.9253 90.004 63.7813 89.444 63.7813 88.82C63.7813 88.188 63.9253 87.628 64.2133 87.14C64.5013 86.652 64.8933 86.272 65.3893 86C65.8853 85.72 66.4533 85.58 67.0933 85.58C67.7253 85.58 68.2893 85.72 68.7853 86C69.2893 86.272 69.6813 86.652 69.9613 87.14C70.2493 87.62 70.3933 88.18 70.3933 88.82C70.3933 89.452 70.2493 90.012 69.9613 90.5C69.6813 90.988 69.2893 91.372 68.7853 91.652C68.2893 91.932 67.7253 92.072 67.0933 92.072ZM67.0933 91.064C67.5013 91.064 67.8653 90.972 68.1853 90.788C68.5133 90.604 68.7693 90.344 68.9533 90.008C69.1373 89.664 69.2293 89.268 69.2293 88.82C69.2293 88.364 69.1373 87.972 68.9533 87.644C68.7693 87.308 68.5133 87.048 68.1853 86.864C67.8653 86.68 67.5013 86.588 67.0933 86.588C66.6853 86.588 66.3213 86.68 66.0013 86.864C65.6813 87.048 65.4253 87.308 65.2333 87.644C65.0413 87.972 64.9453 88.364 64.9453 88.82C64.9453 89.268 65.0413 89.664 65.2333 90.008C65.4253 90.344 65.6813 90.604 66.0013 90.788C66.3213 90.972 66.6853 91.064 67.0933 91.064ZM75.3825 85.58C75.9025 85.58 76.3585 85.68 76.7505 85.88C77.1505 86.08 77.4625 86.384 77.6865 86.792C77.9105 87.2 78.0225 87.716 78.0225 88.34V92H76.8705V88.472C76.8705 87.856 76.7185 87.392 76.4145 87.08C76.1185 86.768 75.6985 86.612 75.1545 86.612C74.7465 86.612 74.3905 86.692 74.0865 86.852C73.7825 87.012 73.5465 87.248 73.3785 87.56C73.2185 87.872 73.1385 88.26 73.1385 88.724V92H71.9865V85.64H73.0905V87.356L72.9105 86.9C73.1185 86.484 73.4385 86.16 73.8705 85.928C74.3025 85.696 74.8065 85.58 75.3825 85.58ZM80.1545 92V85.64H81.3065V92H80.1545ZM79.8305 84.716L81.4625 83.156H82.9265L80.9105 84.716H79.8305ZM85.1741 92L82.3901 85.64H83.5901L86.0621 91.4H85.4861L88.0061 85.64H89.1341L86.3501 92H85.1741ZM92.8654 92.072C92.1854 92.072 91.5854 91.932 91.0654 91.652C90.5534 91.372 90.1534 90.988 89.8654 90.5C89.5854 90.012 89.4454 89.452 89.4454 88.82C89.4454 88.188 89.5814 87.628 89.8534 87.14C90.1334 86.652 90.5134 86.272 90.9934 86C91.4814 85.72 92.0294 85.58 92.6374 85.58C93.2534 85.58 93.7974 85.716 94.2694 85.988C94.7414 86.26 95.1094 86.644 95.3734 87.14C95.6454 87.628 95.7814 88.2 95.7814 88.856C95.7814 88.904 95.7774 88.96 95.7694 89.024C95.7694 89.088 95.7654 89.148 95.7574 89.204H90.3454V88.376H95.1574L94.6894 88.664C94.6974 88.256 94.6134 87.892 94.4374 87.572C94.2614 87.252 94.0174 87.004 93.7054 86.828C93.4014 86.644 93.0454 86.552 92.6374 86.552C92.2374 86.552 91.8814 86.644 91.5694 86.828C91.2574 87.004 91.0134 87.256 90.8374 87.584C90.6614 87.904 90.5734 88.272 90.5734 88.688V88.88C90.5734 89.304 90.6694 89.684 90.8614 90.02C91.0614 90.348 91.3374 90.604 91.6894 90.788C92.0414 90.972 92.4454 91.064 92.9014 91.064C93.2774 91.064 93.6174 91 93.9214 90.872C94.2334 90.744 94.5054 90.552 94.7374 90.296L95.3734 91.04C95.0854 91.376 94.7254 91.632 94.2934 91.808C93.8694 91.984 93.3934 92.072 92.8654 92.072ZM97.3811 92V83.096H98.5331V92H97.3811ZM100.277 93.776L100.877 91.352L101.033 92.048C100.801 92.048 100.605 91.976 100.445 91.832C100.293 91.688 100.217 91.492 100.217 91.244C100.217 91.004 100.293 90.808 100.445 90.656C100.605 90.504 100.797 90.428 101.021 90.428C101.253 90.428 101.441 90.508 101.585 90.668C101.729 90.82 101.801 91.012 101.801 91.244C101.801 91.324 101.793 91.404 101.777 91.484C101.769 91.556 101.749 91.644 101.717 91.748C101.693 91.844 101.653 91.964 101.597 92.108L101.033 93.776H100.277ZM114.63 85.58C115.142 85.58 115.594 85.68 115.986 85.88C116.378 86.08 116.682 86.384 116.898 86.792C117.122 87.2 117.234 87.716 117.234 88.34V92H116.082V88.472C116.082 87.856 115.938 87.392 115.65 87.08C115.362 86.768 114.958 86.612 114.438 86.612C114.054 86.612 113.718 86.692 113.43 86.852C113.142 87.012 112.918 87.248 112.758 87.56C112.606 87.872 112.53 88.26 112.53 88.724V92H111.378V88.472C111.378 87.856 111.234 87.392 110.946 87.08C110.666 86.768 110.262 86.612 109.734 86.612C109.358 86.612 109.026 86.692 108.738 86.852C108.45 87.012 108.226 87.248 108.066 87.56C107.906 87.872 107.826 88.26 107.826 88.724V92H106.674V85.64H107.778V87.332L107.598 86.9C107.798 86.484 108.106 86.16 108.522 85.928C108.938 85.696 109.422 85.58 109.974 85.58C110.582 85.58 111.106 85.732 111.546 86.036C111.986 86.332 112.274 86.784 112.41 87.392L111.942 87.2C112.134 86.712 112.47 86.32 112.95 86.024C113.43 85.728 113.99 85.58 114.63 85.58ZM123.302 92V90.656L123.242 90.404V88.112C123.242 87.624 123.098 87.248 122.81 86.984C122.53 86.712 122.106 86.576 121.538 86.576C121.162 86.576 120.794 86.64 120.434 86.768C120.074 86.888 119.77 87.052 119.522 87.26L119.042 86.396C119.37 86.132 119.762 85.932 120.218 85.796C120.682 85.652 121.166 85.58 121.67 85.58C122.542 85.58 123.214 85.792 123.686 86.216C124.158 86.64 124.394 87.288 124.394 88.16V92H123.302ZM121.214 92.072C120.742 92.072 120.326 91.992 119.966 91.832C119.614 91.672 119.342 91.452 119.15 91.172C118.958 90.884 118.862 90.56 118.862 90.2C118.862 89.856 118.942 89.544 119.102 89.264C119.27 88.984 119.538 88.76 119.906 88.592C120.282 88.424 120.786 88.34 121.418 88.34H123.434V89.168H121.466C120.89 89.168 120.502 89.264 120.302 89.456C120.102 89.648 120.002 89.88 120.002 90.152C120.002 90.464 120.126 90.716 120.374 90.908C120.622 91.092 120.966 91.184 121.406 91.184C121.838 91.184 122.214 91.088 122.534 90.896C122.862 90.704 123.098 90.424 123.242 90.056L123.47 90.848C123.318 91.224 123.05 91.524 122.666 91.748C122.282 91.964 121.798 92.072 121.214 92.072ZM128.35 92.072C127.822 92.072 127.318 92 126.838 91.856C126.366 91.712 125.994 91.536 125.722 91.328L126.202 90.416C126.474 90.6 126.81 90.756 127.21 90.884C127.61 91.012 128.018 91.076 128.434 91.076C128.97 91.076 129.354 91 129.586 90.848C129.826 90.696 129.946 90.484 129.946 90.212C129.946 90.012 129.874 89.856 129.73 89.744C129.586 89.632 129.394 89.548 129.154 89.492C128.922 89.436 128.662 89.388 128.374 89.348C128.086 89.3 127.798 89.244 127.51 89.18C127.222 89.108 126.958 89.012 126.718 88.892C126.478 88.764 126.286 88.592 126.142 88.376C125.998 88.152 125.926 87.856 125.926 87.488C125.926 87.104 126.034 86.768 126.25 86.48C126.466 86.192 126.77 85.972 127.162 85.82C127.562 85.66 128.034 85.58 128.578 85.58C128.994 85.58 129.414 85.632 129.838 85.736C130.27 85.832 130.622 85.972 130.894 86.156L130.402 87.068C130.114 86.876 129.814 86.744 129.502 86.672C129.19 86.6 128.878 86.564 128.566 86.564C128.062 86.564 127.686 86.648 127.438 86.816C127.19 86.976 127.066 87.184 127.066 87.44C127.066 87.656 127.138 87.824 127.282 87.944C127.434 88.056 127.626 88.144 127.858 88.208C128.098 88.272 128.362 88.328 128.65 88.376C128.938 88.416 129.226 88.472 129.514 88.544C129.802 88.608 130.062 88.7 130.294 88.82C130.534 88.94 130.726 89.108 130.87 89.324C131.022 89.54 131.098 89.828 131.098 90.188C131.098 90.572 130.986 90.904 130.762 91.184C130.538 91.464 130.222 91.684 129.814 91.844C129.406 91.996 128.918 92.072 128.35 92.072ZM30.676 107L27.892 100.64H29.092L31.564 106.4H30.988L33.508 100.64H34.636L31.852 107H30.676ZM38.2594 107.072C37.6194 107.072 37.0514 106.932 36.5554 106.652C36.0594 106.372 35.6674 105.988 35.3794 105.5C35.0914 105.004 34.9474 104.444 34.9474 103.82C34.9474 103.188 35.0914 102.628 35.3794 102.14C35.6674 101.652 36.0594 101.272 36.5554 101C37.0514 100.72 37.6194 100.58 38.2594 100.58C38.8914 100.58 39.4554 100.72 39.9514 101C40.4554 101.272 40.8474 101.652 41.1274 102.14C41.4154 102.62 41.5594 103.18 41.5594 103.82C41.5594 104.452 41.4154 105.012 41.1274 105.5C40.8474 105.988 40.4554 106.372 39.9514 106.652C39.4554 106.932 38.8914 107.072 38.2594 107.072ZM38.2594 106.064C38.6674 106.064 39.0314 105.972 39.3514 105.788C39.6794 105.604 39.9354 105.344 40.1194 105.008C40.3034 104.664 40.3954 104.268 40.3954 103.82C40.3954 103.364 40.3034 102.972 40.1194 102.644C39.9354 102.308 39.6794 102.048 39.3514 101.864C39.0314 101.68 38.6674 101.588 38.2594 101.588C37.8514 101.588 37.4874 101.68 37.1674 101.864C36.8474 102.048 36.5914 102.308 36.3994 102.644C36.2074 102.972 36.1114 103.364 36.1114 103.82C36.1114 104.268 36.2074 104.664 36.3994 105.008C36.5914 105.344 36.8474 105.604 37.1674 105.788C37.4874 105.972 37.8514 106.064 38.2594 106.064ZM45.9245 107.072C45.2765 107.072 44.6965 106.932 44.1845 106.652C43.6805 106.372 43.2845 105.988 42.9965 105.5C42.7085 105.012 42.5645 104.452 42.5645 103.82C42.5645 103.188 42.7085 102.628 42.9965 102.14C43.2845 101.652 43.6805 101.272 44.1845 101C44.6965 100.72 45.2765 100.58 45.9245 100.58C46.5005 100.58 47.0125 100.696 47.4605 100.928C47.9165 101.152 48.2685 101.488 48.5165 101.936L47.6405 102.5C47.4325 102.188 47.1765 101.96 46.8725 101.816C46.5765 101.664 46.2565 101.588 45.9125 101.588C45.4965 101.588 45.1245 101.68 44.7965 101.864C44.4685 102.048 44.2085 102.308 44.0165 102.644C43.8245 102.972 43.7285 103.364 43.7285 103.82C43.7285 104.276 43.8245 104.672 44.0165 105.008C44.2085 105.344 44.4685 105.604 44.7965 105.788C45.1245 105.972 45.4965 106.064 45.9125 106.064C46.2565 106.064 46.5765 105.992 46.8725 105.848C47.1765 105.696 47.4325 105.464 47.6405 105.152L48.5165 105.704C48.2685 106.144 47.9165 106.484 47.4605 106.724C47.0125 106.956 46.5005 107.072 45.9245 107.072ZM52.7463 107.072C52.0663 107.072 51.4663 106.932 50.9463 106.652C50.4343 106.372 50.0343 105.988 49.7463 105.5C49.4663 105.012 49.3263 104.452 49.3263 103.82C49.3263 103.188 49.4623 102.628 49.7343 102.14C50.0143 101.652 50.3943 101.272 50.8743 101C51.3623 100.72 51.9103 100.58 52.5183 100.58C53.1343 100.58 53.6783 100.716 54.1503 100.988C54.6223 101.26 54.9903 101.644 55.2543 102.14C55.5263 102.628 55.6623 103.2 55.6623 103.856C55.6623 103.904 55.6583 103.96 55.6503 104.024C55.6503 104.088 55.6463 104.148 55.6383 104.204H50.2263V103.376H55.0383L54.5703 103.664C54.5783 103.256 54.4943 102.892 54.3183 102.572C54.1423 102.252 53.8983 102.004 53.5863 101.828C53.2823 101.644 52.9263 101.552 52.5183 101.552C52.1183 101.552 51.7623 101.644 51.4503 101.828C51.1383 102.004 50.8943 102.256 50.7183 102.584C50.5423 102.904 50.4543 103.272 50.4543 103.688V103.88C50.4543 104.304 50.5503 104.684 50.7423 105.02C50.9423 105.348 51.2183 105.604 51.5703 105.788C51.9223 105.972 52.3263 106.064 52.7823 106.064C53.1583 106.064 53.4983 106 53.8023 105.872C54.1143 105.744 54.3863 105.552 54.6183 105.296L55.2543 106.04C54.9663 106.376 54.6063 106.632 54.1743 106.808C53.7503 106.984 53.2743 107.072 52.7463 107.072ZM50.3583 99.716L51.9543 98.156H53.0583L54.6543 99.716H53.6103L52.0263 98.396H52.9863L51.4023 99.716H50.3583ZM63.8566 107.072C63.3286 107.072 62.8446 106.952 62.4046 106.712C61.9726 106.464 61.6246 106.1 61.3606 105.62C61.1046 105.14 60.9766 104.54 60.9766 103.82C60.9766 103.1 61.1006 102.5 61.3486 102.02C61.6046 101.54 61.9486 101.18 62.3806 100.94C62.8206 100.7 63.3126 100.58 63.8566 100.58C64.4806 100.58 65.0326 100.716 65.5126 100.988C65.9926 101.26 66.3726 101.64 66.6526 102.128C66.9326 102.608 67.0726 103.172 67.0726 103.82C67.0726 104.468 66.9326 105.036 66.6526 105.524C66.3726 106.012 65.9926 106.392 65.5126 106.664C65.0326 106.936 64.4806 107.072 63.8566 107.072ZM60.4846 109.328V100.64H61.5886V102.356L61.5166 103.832L61.6366 105.308V109.328H60.4846ZM63.7606 106.064C64.1686 106.064 64.5326 105.972 64.8526 105.788C65.1806 105.604 65.4366 105.344 65.6206 105.008C65.8126 104.664 65.9086 104.268 65.9086 103.82C65.9086 103.364 65.8126 102.972 65.6206 102.644C65.4366 102.308 65.1806 102.048 64.8526 101.864C64.5326 101.68 64.1686 101.588 63.7606 101.588C63.3606 101.588 62.9966 101.68 62.6686 101.864C62.3486 102.048 62.0926 102.308 61.9006 102.644C61.7166 102.972 61.6246 103.364 61.6246 103.82C61.6246 104.268 61.7166 104.664 61.9006 105.008C62.0926 105.344 62.3486 105.604 62.6686 105.788C62.9966 105.972 63.3606 106.064 63.7606 106.064ZM71.3883 107.072C70.7483 107.072 70.1803 106.932 69.6843 106.652C69.1883 106.372 68.7963 105.988 68.5083 105.5C68.2203 105.004 68.0763 104.444 68.0763 103.82C68.0763 103.188 68.2203 102.628 68.5083 102.14C68.7963 101.652 69.1883 101.272 69.6843 101C70.1803 100.72 70.7483 100.58 71.3883 100.58C72.0203 100.58 72.5843 100.72 73.0803 101C73.5843 101.272 73.9763 101.652 74.2563 102.14C74.5443 102.62 74.6883 103.18 74.6883 103.82C74.6883 104.452 74.5443 105.012 74.2563 105.5C73.9763 105.988 73.5843 106.372 73.0803 106.652C72.5843 106.932 72.0203 107.072 71.3883 107.072ZM71.3883 106.064C71.7963 106.064 72.1603 105.972 72.4803 105.788C72.8083 105.604 73.0643 105.344 73.2483 105.008C73.4323 104.664 73.5243 104.268 73.5243 103.82C73.5243 103.364 73.4323 102.972 73.2483 102.644C73.0643 102.308 72.8083 102.048 72.4803 101.864C72.1603 101.68 71.7963 101.588 71.3883 101.588C70.9803 101.588 70.6163 101.68 70.2963 101.864C69.9763 102.048 69.7203 102.308 69.5283 102.644C69.3363 102.972 69.2403 103.364 69.2403 103.82C69.2403 104.268 69.3363 104.664 69.5283 105.008C69.7203 105.344 69.9763 105.604 70.2963 105.788C70.6163 105.972 70.9803 106.064 71.3883 106.064ZM78.9095 107.072C78.2935 107.072 77.7415 106.936 77.2535 106.664C76.7735 106.392 76.3935 106.012 76.1135 105.524C75.8335 105.036 75.6935 104.468 75.6935 103.82C75.6935 103.172 75.8335 102.608 76.1135 102.128C76.3935 101.64 76.7735 101.26 77.2535 100.988C77.7415 100.716 78.2935 100.58 78.9095 100.58C79.4455 100.58 79.9295 100.7 80.3615 100.94C80.7935 101.18 81.1375 101.54 81.3935 102.02C81.6575 102.5 81.7895 103.1 81.7895 103.82C81.7895 104.54 81.6615 105.14 81.4055 105.62C81.1575 106.1 80.8175 106.464 80.3855 106.712C79.9535 106.952 79.4615 107.072 78.9095 107.072ZM79.0055 106.064C79.4055 106.064 79.7655 105.972 80.0855 105.788C80.4135 105.604 80.6695 105.344 80.8535 105.008C81.0455 104.664 81.1415 104.268 81.1415 103.82C81.1415 103.364 81.0455 102.972 80.8535 102.644C80.6695 102.308 80.4135 102.048 80.0855 101.864C79.7655 101.68 79.4055 101.588 79.0055 101.588C78.5975 101.588 78.2335 101.68 77.9135 101.864C77.5935 102.048 77.3375 102.308 77.1455 102.644C76.9535 102.972 76.8575 103.364 76.8575 103.82C76.8575 104.268 76.9535 104.664 77.1455 105.008C77.3375 105.344 77.5935 105.604 77.9135 105.788C78.2335 105.972 78.5975 106.064 79.0055 106.064ZM81.1775 107V105.284L81.2495 103.808L81.1295 102.332V98.096H82.2815V107H81.1775ZM87.2931 107.072C86.6131 107.072 86.0131 106.932 85.4931 106.652C84.9811 106.372 84.5811 105.988 84.2931 105.5C84.0131 105.012 83.8731 104.452 83.8731 103.82C83.8731 103.188 84.0091 102.628 84.2811 102.14C84.5611 101.652 84.9411 101.272 85.4211 101C85.9091 100.72 86.4571 100.58 87.0651 100.58C87.6811 100.58 88.2251 100.716 88.6971 100.988C89.1691 101.26 89.5371 101.644 89.8011 102.14C90.0731 102.628 90.2091 103.2 90.2091 103.856C90.2091 103.904 90.2051 103.96 90.1971 104.024C90.1971 104.088 90.1931 104.148 90.1851 104.204H84.7731V103.376H89.5851L89.1171 103.664C89.1251 103.256 89.0411 102.892 88.8651 102.572C88.6891 102.252 88.4451 102.004 88.1331 101.828C87.8291 101.644 87.4731 101.552 87.0651 101.552C86.6651 101.552 86.3091 101.644 85.9971 101.828C85.6851 102.004 85.4411 102.256 85.2651 102.584C85.0891 102.904 85.0011 103.272 85.0011 103.688V103.88C85.0011 104.304 85.0971 104.684 85.2891 105.02C85.4891 105.348 85.7651 105.604 86.1171 105.788C86.4691 105.972 86.8731 106.064 87.3291 106.064C87.7051 106.064 88.0451 106 88.3491 105.872C88.6611 105.744 88.9331 105.552 89.1651 105.296L89.8011 106.04C89.5131 106.376 89.1531 106.632 88.7211 106.808C88.2971 106.984 87.8211 107.072 87.2931 107.072ZM97.8035 107.072C97.1555 107.072 96.5755 106.932 96.0635 106.652C95.5595 106.372 95.1635 105.988 94.8755 105.5C94.5875 105.012 94.4435 104.452 94.4435 103.82C94.4435 103.188 94.5875 102.628 94.8755 102.14C95.1635 101.652 95.5595 101.272 96.0635 101C96.5755 100.72 97.1555 100.58 97.8035 100.58C98.3795 100.58 98.8915 100.696 99.3395 100.928C99.7955 101.152 100.147 101.488 100.395 101.936L99.5195 102.5C99.3115 102.188 99.0555 101.96 98.7515 101.816C98.4555 101.664 98.1355 101.588 97.7915 101.588C97.3755 101.588 97.0035 101.68 96.6755 101.864C96.3475 102.048 96.0875 102.308 95.8955 102.644C95.7035 102.972 95.6075 103.364 95.6075 103.82C95.6075 104.276 95.7035 104.672 95.8955 105.008C96.0875 105.344 96.3475 105.604 96.6755 105.788C97.0035 105.972 97.3755 106.064 97.7915 106.064C98.1355 106.064 98.4555 105.992 98.7515 105.848C99.0555 105.696 99.3115 105.464 99.5195 105.152L100.395 105.704C100.147 106.144 99.7955 106.484 99.3395 106.724C98.8915 106.956 98.3795 107.072 97.8035 107.072ZM104.517 107.072C103.877 107.072 103.309 106.932 102.813 106.652C102.317 106.372 101.925 105.988 101.637 105.5C101.349 105.004 101.205 104.444 101.205 103.82C101.205 103.188 101.349 102.628 101.637 102.14C101.925 101.652 102.317 101.272 102.813 101C103.309 100.72 103.877 100.58 104.517 100.58C105.149 100.58 105.713 100.72 106.209 101C106.713 101.272 107.105 101.652 107.385 102.14C107.673 102.62 107.817 103.18 107.817 103.82C107.817 104.452 107.673 105.012 107.385 105.5C107.105 105.988 106.713 106.372 106.209 106.652C105.713 106.932 105.149 107.072 104.517 107.072ZM104.517 106.064C104.925 106.064 105.289 105.972 105.609 105.788C105.937 105.604 106.193 105.344 106.377 105.008C106.561 104.664 106.653 104.268 106.653 103.82C106.653 103.364 106.561 102.972 106.377 102.644C106.193 102.308 105.937 102.048 105.609 101.864C105.289 101.68 104.925 101.588 104.517 101.588C104.109 101.588 103.745 101.68 103.425 101.864C103.105 102.048 102.849 102.308 102.657 102.644C102.465 102.972 102.369 103.364 102.369 103.82C102.369 104.268 102.465 104.664 102.657 105.008C102.849 105.344 103.105 105.604 103.425 105.788C103.745 105.972 104.109 106.064 104.517 106.064ZM112.806 100.58C113.326 100.58 113.782 100.68 114.174 100.88C114.574 101.08 114.886 101.384 115.11 101.792C115.334 102.2 115.446 102.716 115.446 103.34V107H114.294V103.472C114.294 102.856 114.142 102.392 113.838 102.08C113.542 101.768 113.122 101.612 112.578 101.612C112.17 101.612 111.814 101.692 111.51 101.852C111.206 102.012 110.97 102.248 110.802 102.56C110.642 102.872 110.562 103.26 110.562 103.724V107H109.41V100.64H110.514V102.356L110.334 101.9C110.542 101.484 110.862 101.16 111.294 100.928C111.726 100.696 112.23 100.58 112.806 100.58ZM117.746 107V100.076C117.746 99.452 117.926 98.956 118.286 98.588C118.654 98.212 119.174 98.024 119.846 98.024C120.094 98.024 120.33 98.056 120.554 98.12C120.786 98.176 120.982 98.268 121.142 98.396L120.794 99.272C120.674 99.176 120.538 99.104 120.386 99.056C120.234 99 120.074 98.972 119.906 98.972C119.57 98.972 119.314 99.068 119.138 99.26C118.962 99.444 118.874 99.72 118.874 100.088V100.94L118.898 101.468V107H117.746ZM116.666 101.588V100.64H120.722V101.588H116.666ZM124.547 107.072C123.867 107.072 123.267 106.932 122.747 106.652C122.235 106.372 121.835 105.988 121.547 105.5C121.267 105.012 121.127 104.452 121.127 103.82C121.127 103.188 121.263 102.628 121.535 102.14C121.815 101.652 122.195 101.272 122.675 101C123.163 100.72 123.711 100.58 124.319 100.58C124.935 100.58 125.479 100.716 125.951 100.988C126.423 101.26 126.791 101.644 127.055 102.14C127.327 102.628 127.463 103.2 127.463 103.856C127.463 103.904 127.459 103.96 127.451 104.024C127.451 104.088 127.447 104.148 127.439 104.204H122.027V103.376H126.839L126.371 103.664C126.379 103.256 126.295 102.892 126.119 102.572C125.943 102.252 125.699 102.004 125.387 101.828C125.083 101.644 124.727 101.552 124.319 101.552C123.919 101.552 123.563 101.644 123.251 101.828C122.939 102.004 122.695 102.256 122.519 102.584C122.343 102.904 122.255 103.272 122.255 103.688V103.88C122.255 104.304 122.351 104.684 122.543 105.02C122.743 105.348 123.019 105.604 123.371 105.788C123.723 105.972 124.127 106.064 124.583 106.064C124.959 106.064 125.299 106 125.603 105.872C125.915 105.744 126.187 105.552 126.419 105.296L127.055 106.04C126.767 106.376 126.407 106.632 125.975 106.808C125.551 106.984 125.075 107.072 124.547 107.072ZM129.063 107V100.64H130.167V102.368L130.059 101.936C130.235 101.496 130.531 101.16 130.947 100.928C131.363 100.696 131.875 100.58 132.483 100.58V101.696C132.435 101.688 132.387 101.684 132.339 101.684C132.299 101.684 132.259 101.684 132.219 101.684C131.603 101.684 131.115 101.868 130.755 102.236C130.395 102.604 130.215 103.136 130.215 103.832V107H129.063ZM133.903 107V100.64H135.055V107H133.903ZM134.479 99.416C134.255 99.416 134.067 99.344 133.915 99.2C133.771 99.056 133.699 98.88 133.699 98.672C133.699 98.456 133.771 98.276 133.915 98.132C134.067 97.988 134.255 97.916 134.479 97.916C134.703 97.916 134.887 97.988 135.031 98.132C135.183 98.268 135.259 98.44 135.259 98.648C135.259 98.864 135.187 99.048 135.043 99.2C134.899 99.344 134.711 99.416 134.479 99.416ZM137.254 107V100.64H138.358V102.368L138.25 101.936C138.426 101.496 138.722 101.16 139.138 100.928C139.554 100.696 140.066 100.58 140.674 100.58V101.696C140.626 101.688 140.578 101.684 140.53 101.684C140.49 101.684 140.45 101.684 140.41 101.684C139.794 101.684 139.306 101.868 138.946 102.236C138.586 102.604 138.406 103.136 138.406 103.832V107H137.254ZM42.6403 115.58C43.1603 115.58 43.6163 115.68 44.0083 115.88C44.4083 116.08 44.7203 116.384 44.9443 116.792C45.1683 117.2 45.2803 117.716 45.2803 118.34V122H44.1283V118.472C44.1283 117.856 43.9763 117.392 43.6723 117.08C43.3763 116.768 42.9563 116.612 42.4123 116.612C42.0043 116.612 41.6483 116.692 41.3443 116.852C41.0403 117.012 40.8043 117.248 40.6363 117.56C40.4763 117.872 40.3963 118.26 40.3963 118.724V122H39.2443V115.64H40.3483V117.356L40.1683 116.9C40.3763 116.484 40.6963 116.16 41.1283 115.928C41.5603 115.696 42.0643 115.58 42.6403 115.58ZM50.1363 122.072C49.4963 122.072 48.9283 121.932 48.4323 121.652C47.9363 121.372 47.5443 120.988 47.2563 120.5C46.9683 120.004 46.8243 119.444 46.8243 118.82C46.8243 118.188 46.9683 117.628 47.2563 117.14C47.5443 116.652 47.9363 116.272 48.4323 116C48.9283 115.72 49.4963 115.58 50.1363 115.58C50.7683 115.58 51.3323 115.72 51.8283 116C52.3323 116.272 52.7243 116.652 53.0043 117.14C53.2923 117.62 53.4363 118.18 53.4363 118.82C53.4363 119.452 53.2923 120.012 53.0043 120.5C52.7243 120.988 52.3323 121.372 51.8283 121.652C51.3323 121.932 50.7683 122.072 50.1363 122.072ZM50.1363 121.064C50.5443 121.064 50.9083 120.972 51.2283 120.788C51.5563 120.604 51.8123 120.344 51.9963 120.008C52.1803 119.664 52.2723 119.268 52.2723 118.82C52.2723 118.364 52.1803 117.972 51.9963 117.644C51.8123 117.308 51.5563 117.048 51.2283 116.864C50.9083 116.68 50.5443 116.588 50.1363 116.588C49.7283 116.588 49.3643 116.68 49.0443 116.864C48.7243 117.048 48.4683 117.308 48.2763 117.644C48.0843 117.972 47.9883 118.364 47.9883 118.82C47.9883 119.268 48.0843 119.664 48.2763 120.008C48.4683 120.344 48.7243 120.604 49.0443 120.788C49.3643 120.972 49.7283 121.064 50.1363 121.064ZM62.2122 122.096C61.5642 122.096 60.9682 121.992 60.4242 121.784C59.8802 121.568 59.4082 121.268 59.0082 120.884C58.6082 120.492 58.2962 120.036 58.0722 119.516C57.8482 118.996 57.7362 118.424 57.7362 117.8C57.7362 117.176 57.8482 116.604 58.0722 116.084C58.2962 115.564 58.6082 115.112 59.0082 114.728C59.4162 114.336 59.8922 114.036 60.4362 113.828C60.9802 113.612 61.5802 113.504 62.2362 113.504C62.9002 113.504 63.5082 113.612 64.0602 113.828C64.6122 114.044 65.0802 114.368 65.4642 114.8L64.7202 115.544C64.3762 115.208 64.0002 114.964 63.5922 114.812C63.1922 114.652 62.7562 114.572 62.2842 114.572C61.8042 114.572 61.3562 114.652 60.9402 114.812C60.5322 114.972 60.1762 115.196 59.8722 115.484C59.5762 115.772 59.3442 116.116 59.1762 116.516C59.0162 116.908 58.9362 117.336 58.9362 117.8C58.9362 118.256 59.0162 118.684 59.1762 119.084C59.3442 119.476 59.5762 119.82 59.8722 120.116C60.1762 120.404 60.5322 120.628 60.9402 120.788C61.3482 120.948 61.7922 121.028 62.2722 121.028C62.7202 121.028 63.1482 120.96 63.5562 120.824C63.9722 120.68 64.3562 120.444 64.7082 120.116L65.3922 121.028C64.9762 121.38 64.4882 121.648 63.9282 121.832C63.3762 122.008 62.8042 122.096 62.2122 122.096ZM64.2402 120.872V117.752H65.3922V121.028L64.2402 120.872ZM67.5217 122V115.64H68.6737V122H67.5217ZM68.0977 114.416C67.8737 114.416 67.6857 114.344 67.5337 114.2C67.3897 114.056 67.3177 113.88 67.3177 113.672C67.3177 113.456 67.3897 113.276 67.5337 113.132C67.6857 112.988 67.8737 112.916 68.0977 112.916C68.3217 112.916 68.5057 112.988 68.6497 113.132C68.8017 113.268 68.8777 113.44 68.8777 113.648C68.8777 113.864 68.8057 114.048 68.6617 114.2C68.5177 114.344 68.3297 114.416 68.0977 114.416ZM73.0573 122.072C72.4173 122.072 71.9213 121.9 71.5693 121.556C71.2173 121.212 71.0413 120.72 71.0413 120.08V114.248H72.1933V120.032C72.1933 120.376 72.2773 120.64 72.4453 120.824C72.6213 121.008 72.8693 121.1 73.1893 121.1C73.5493 121.1 73.8493 121 74.0893 120.8L74.4493 121.628C74.2733 121.78 74.0613 121.892 73.8133 121.964C73.5733 122.036 73.3213 122.072 73.0573 122.072ZM69.9613 116.588V115.64H74.0173V116.588H69.9613ZM82.034 113.6H83.234V122H82.034V113.6ZM77.21 122H76.01V113.6H77.21V122ZM82.142 118.256H77.09V117.212H82.142V118.256ZM88.2563 122.072C87.7123 122.072 87.2323 121.972 86.8163 121.772C86.4083 121.572 86.0883 121.268 85.8563 120.86C85.6323 120.444 85.5203 119.924 85.5203 119.3V115.64H86.6723V119.168C86.6723 119.792 86.8203 120.26 87.1163 120.572C87.4203 120.884 87.8443 121.04 88.3883 121.04C88.7883 121.04 89.1363 120.96 89.4323 120.8C89.7283 120.632 89.9563 120.392 90.1163 120.08C90.2763 119.76 90.3563 119.376 90.3563 118.928V115.64H91.5083V122H90.4163V120.284L90.5963 120.74C90.3883 121.164 90.0763 121.492 89.6603 121.724C89.2443 121.956 88.7763 122.072 88.2563 122.072ZM97.0734 122.072C96.5294 122.072 96.0374 121.952 95.5974 121.712C95.1654 121.464 94.8214 121.1 94.5654 120.62C94.3174 120.14 94.1934 119.54 94.1934 118.82C94.1934 118.1 94.3214 117.5 94.5774 117.02C94.8414 116.54 95.1894 116.18 95.6214 115.94C96.0614 115.7 96.5454 115.58 97.0734 115.58C97.6974 115.58 98.2494 115.716 98.7294 115.988C99.2094 116.26 99.5894 116.64 99.8694 117.128C100.149 117.608 100.289 118.172 100.289 118.82C100.289 119.468 100.149 120.036 99.8694 120.524C99.5894 121.012 99.2094 121.392 98.7294 121.664C98.2494 121.936 97.6974 122.072 97.0734 122.072ZM93.7014 122V113.096H94.8534V117.332L94.7334 118.808L94.8054 120.284V122H93.7014ZM96.9774 121.064C97.3854 121.064 97.7494 120.972 98.0694 120.788C98.3974 120.604 98.6534 120.344 98.8374 120.008C99.0294 119.664 99.1254 119.268 99.1254 118.82C99.1254 118.364 99.0294 117.972 98.8374 117.644C98.6534 117.308 98.3974 117.048 98.0694 116.864C97.7494 116.68 97.3854 116.588 96.9774 116.588C96.5774 116.588 96.2134 116.68 95.8854 116.864C95.5654 117.048 95.3094 117.308 95.1174 117.644C94.9334 117.972 94.8414 118.364 94.8414 118.82C94.8414 119.268 94.9334 119.664 95.1174 120.008C95.3094 120.344 95.5654 120.604 95.8854 120.788C96.2134 120.972 96.5774 121.064 96.9774 121.064ZM108.476 122.072C107.948 122.072 107.464 121.952 107.024 121.712C106.592 121.464 106.244 121.1 105.98 120.62C105.724 120.14 105.596 119.54 105.596 118.82C105.596 118.1 105.72 117.5 105.968 117.02C106.224 116.54 106.568 116.18 107 115.94C107.44 115.7 107.932 115.58 108.476 115.58C109.1 115.58 109.652 115.716 110.132 115.988C110.612 116.26 110.992 116.64 111.272 117.128C111.552 117.608 111.692 118.172 111.692 118.82C111.692 119.468 111.552 120.036 111.272 120.524C110.992 121.012 110.612 121.392 110.132 121.664C109.652 121.936 109.1 122.072 108.476 122.072ZM105.104 124.328V115.64H106.208V117.356L106.136 118.832L106.256 120.308V124.328H105.104ZM108.38 121.064C108.788 121.064 109.152 120.972 109.472 120.788C109.8 120.604 110.056 120.344 110.24 120.008C110.432 119.664 110.528 119.268 110.528 118.82C110.528 118.364 110.432 117.972 110.24 117.644C110.056 117.308 109.8 117.048 109.472 116.864C109.152 116.68 108.788 116.588 108.38 116.588C107.98 116.588 107.616 116.68 107.288 116.864C106.968 117.048 106.712 117.308 106.52 117.644C106.336 117.972 106.244 118.364 106.244 118.82C106.244 119.268 106.336 119.664 106.52 120.008C106.712 120.344 106.968 120.604 107.288 120.788C107.616 120.972 107.98 121.064 108.38 121.064ZM117.173 122V120.656L117.113 120.404V118.112C117.113 117.624 116.969 117.248 116.681 116.984C116.401 116.712 115.977 116.576 115.409 116.576C115.033 116.576 114.665 116.64 114.305 116.768C113.945 116.888 113.641 117.052 113.393 117.26L112.913 116.396C113.241 116.132 113.633 115.932 114.089 115.796C114.553 115.652 115.037 115.58 115.541 115.58C116.413 115.58 117.085 115.792 117.557 116.216C118.029 116.64 118.265 117.288 118.265 118.16V122H117.173ZM115.085 122.072C114.613 122.072 114.197 121.992 113.837 121.832C113.485 121.672 113.213 121.452 113.021 121.172C112.829 120.884 112.733 120.56 112.733 120.2C112.733 119.856 112.813 119.544 112.973 119.264C113.141 118.984 113.409 118.76 113.777 118.592C114.153 118.424 114.657 118.34 115.289 118.34H117.305V119.168H115.337C114.761 119.168 114.373 119.264 114.173 119.456C113.973 119.648 113.873 119.88 113.873 120.152C113.873 120.464 113.997 120.716 114.245 120.908C114.493 121.092 114.837 121.184 115.277 121.184C115.709 121.184 116.085 121.088 116.405 120.896C116.733 120.704 116.969 120.424 117.113 120.056L117.341 120.848C117.189 121.224 116.921 121.524 116.537 121.748C116.153 121.964 115.669 122.072 115.085 122.072ZM120.397 122V115.64H121.501V117.368L121.393 116.936C121.569 116.496 121.865 116.16 122.281 115.928C122.697 115.696 123.209 115.58 123.817 115.58V116.696C123.769 116.688 123.721 116.684 123.673 116.684C123.633 116.684 123.593 116.684 123.553 116.684C122.937 116.684 122.449 116.868 122.089 117.236C121.729 117.604 121.549 118.136 121.549 118.832V122H120.397ZM128.716 122V120.656L128.656 120.404V118.112C128.656 117.624 128.512 117.248 128.224 116.984C127.944 116.712 127.52 116.576 126.952 116.576C126.576 116.576 126.208 116.64 125.848 116.768C125.488 116.888 125.184 117.052 124.936 117.26L124.456 116.396C124.784 116.132 125.176 115.932 125.632 115.796C126.096 115.652 126.58 115.58 127.084 115.58C127.956 115.58 128.628 115.792 129.1 116.216C129.572 116.64 129.808 117.288 129.808 118.16V122H128.716ZM126.628 122.072C126.156 122.072 125.74 121.992 125.38 121.832C125.028 121.672 124.756 121.452 124.564 121.172C124.372 120.884 124.276 120.56 124.276 120.2C124.276 119.856 124.356 119.544 124.516 119.264C124.684 118.984 124.952 118.76 125.32 118.592C125.696 118.424 126.2 118.34 126.832 118.34H128.848V119.168H126.88C126.304 119.168 125.916 119.264 125.716 119.456C125.516 119.648 125.416 119.88 125.416 120.152C125.416 120.464 125.54 120.716 125.788 120.908C126.036 121.092 126.38 121.184 126.82 121.184C127.252 121.184 127.628 121.088 127.948 120.896C128.276 120.704 128.512 120.424 128.656 120.056L128.884 120.848C128.732 121.224 128.464 121.524 128.08 121.748C127.696 121.964 127.212 122.072 126.628 122.072ZM49.4503 130.58C49.9623 130.58 50.4143 130.68 50.8063 130.88C51.1983 131.08 51.5023 131.384 51.7183 131.792C51.9423 132.2 52.0543 132.716 52.0543 133.34V137H50.9023V133.472C50.9023 132.856 50.7583 132.392 50.4703 132.08C50.1823 131.768 49.7783 131.612 49.2583 131.612C48.8743 131.612 48.5383 131.692 48.2503 131.852C47.9623 132.012 47.7383 132.248 47.5783 132.56C47.4263 132.872 47.3503 133.26 47.3503 133.724V137H46.1983V133.472C46.1983 132.856 46.0543 132.392 45.7663 132.08C45.4863 131.768 45.0823 131.612 44.5543 131.612C44.1783 131.612 43.8463 131.692 43.5583 131.852C43.2703 132.012 43.0463 132.248 42.8863 132.56C42.7263 132.872 42.6463 133.26 42.6463 133.724V137H41.4943V130.64H42.5983V132.332L42.4183 131.9C42.6183 131.484 42.9263 131.16 43.3423 130.928C43.7583 130.696 44.2423 130.58 44.7943 130.58C45.4023 130.58 45.9263 130.732 46.3663 131.036C46.8063 131.332 47.0943 131.784 47.2303 132.392L46.7623 132.2C46.9543 131.712 47.2903 131.32 47.7703 131.024C48.2503 130.728 48.8103 130.58 49.4503 130.58ZM58.122 137V135.656L58.062 135.404V133.112C58.062 132.624 57.918 132.248 57.63 131.984C57.35 131.712 56.926 131.576 56.358 131.576C55.982 131.576 55.614 131.64 55.254 131.768C54.894 131.888 54.59 132.052 54.342 132.26L53.862 131.396C54.19 131.132 54.582 130.932 55.038 130.796C55.502 130.652 55.986 130.58 56.49 130.58C57.362 130.58 58.034 130.792 58.506 131.216C58.978 131.64 59.214 132.288 59.214 133.16V137H58.122ZM56.034 137.072C55.562 137.072 55.146 136.992 54.786 136.832C54.434 136.672 54.162 136.452 53.97 136.172C53.778 135.884 53.682 135.56 53.682 135.2C53.682 134.856 53.762 134.544 53.922 134.264C54.09 133.984 54.358 133.76 54.726 133.592C55.102 133.424 55.606 133.34 56.238 133.34H58.254V134.168H56.286C55.71 134.168 55.322 134.264 55.122 134.456C54.922 134.648 54.822 134.88 54.822 135.152C54.822 135.464 54.946 135.716 55.194 135.908C55.442 136.092 55.786 136.184 56.226 136.184C56.658 136.184 57.034 136.088 57.354 135.896C57.682 135.704 57.918 135.424 58.062 135.056L58.29 135.848C58.138 136.224 57.87 136.524 57.486 136.748C57.102 136.964 56.618 137.072 56.034 137.072ZM61.3459 137V130.64H62.4979V137H61.3459ZM61.9219 129.416C61.6979 129.416 61.5099 129.344 61.3579 129.2C61.2139 129.056 61.1419 128.88 61.1419 128.672C61.1419 128.456 61.2139 128.276 61.3579 128.132C61.5099 127.988 61.6979 127.916 61.9219 127.916C62.1459 127.916 62.3299 127.988 62.4739 128.132C62.6259 128.268 62.7019 128.44 62.7019 128.648C62.7019 128.864 62.6299 129.048 62.4859 129.2C62.3419 129.344 62.1539 129.416 61.9219 129.416ZM66.5215 137.072C65.9935 137.072 65.4895 137 65.0095 136.856C64.5375 136.712 64.1655 136.536 63.8935 136.328L64.3735 135.416C64.6455 135.6 64.9815 135.756 65.3815 135.884C65.7815 136.012 66.1895 136.076 66.6055 136.076C67.1415 136.076 67.5255 136 67.7575 135.848C67.9975 135.696 68.1175 135.484 68.1175 135.212C68.1175 135.012 68.0455 134.856 67.9015 134.744C67.7575 134.632 67.5655 134.548 67.3255 134.492C67.0935 134.436 66.8335 134.388 66.5455 134.348C66.2575 134.3 65.9695 134.244 65.6815 134.18C65.3935 134.108 65.1295 134.012 64.8895 133.892C64.6495 133.764 64.4575 133.592 64.3135 133.376C64.1695 133.152 64.0975 132.856 64.0975 132.488C64.0975 132.104 64.2055 131.768 64.4215 131.48C64.6375 131.192 64.9415 130.972 65.3335 130.82C65.7335 130.66 66.2055 130.58 66.7495 130.58C67.1655 130.58 67.5855 130.632 68.0095 130.736C68.4415 130.832 68.7935 130.972 69.0655 131.156L68.5735 132.068C68.2855 131.876 67.9855 131.744 67.6735 131.672C67.3615 131.6 67.0495 131.564 66.7375 131.564C66.2335 131.564 65.8575 131.648 65.6095 131.816C65.3615 131.976 65.2375 132.184 65.2375 132.44C65.2375 132.656 65.3095 132.824 65.4535 132.944C65.6055 133.056 65.7975 133.144 66.0295 133.208C66.2695 133.272 66.5335 133.328 66.8215 133.376C67.1095 133.416 67.3975 133.472 67.6855 133.544C67.9735 133.608 68.2335 133.7 68.4655 133.82C68.7055 133.94 68.8975 134.108 69.0415 134.324C69.1935 134.54 69.2695 134.828 69.2695 135.188C69.2695 135.572 69.1575 135.904 68.9335 136.184C68.7095 136.464 68.3935 136.684 67.9855 136.844C67.5775 136.996 67.0895 137.072 66.5215 137.072ZM76.5598 137.072C75.9438 137.072 75.3918 136.936 74.9038 136.664C74.4238 136.392 74.0438 136.012 73.7638 135.524C73.4838 135.036 73.3438 134.468 73.3438 133.82C73.3438 133.172 73.4838 132.608 73.7638 132.128C74.0438 131.64 74.4238 131.26 74.9038 130.988C75.3918 130.716 75.9438 130.58 76.5598 130.58C77.0958 130.58 77.5798 130.7 78.0118 130.94C78.4438 131.18 78.7878 131.54 79.0438 132.02C79.3078 132.5 79.4398 133.1 79.4398 133.82C79.4398 134.54 79.3118 135.14 79.0558 135.62C78.8078 136.1 78.4678 136.464 78.0358 136.712C77.6038 136.952 77.1118 137.072 76.5598 137.072ZM76.6558 136.064C77.0558 136.064 77.4158 135.972 77.7358 135.788C78.0638 135.604 78.3198 135.344 78.5038 135.008C78.6958 134.664 78.7918 134.268 78.7918 133.82C78.7918 133.364 78.6958 132.972 78.5038 132.644C78.3198 132.308 78.0638 132.048 77.7358 131.864C77.4158 131.68 77.0558 131.588 76.6558 131.588C76.2478 131.588 75.8838 131.68 75.5638 131.864C75.2438 132.048 74.9878 132.308 74.7958 132.644C74.6038 132.972 74.5078 133.364 74.5078 133.82C74.5078 134.268 74.6038 134.664 74.7958 135.008C74.9878 135.344 75.2438 135.604 75.5638 135.788C75.8838 135.972 76.2478 136.064 76.6558 136.064ZM78.8278 137V135.284L78.8998 133.808L78.7798 132.332V128.096H79.9318V137H78.8278ZM84.9435 137.072C84.2635 137.072 83.6635 136.932 83.1435 136.652C82.6315 136.372 82.2315 135.988 81.9435 135.5C81.6635 135.012 81.5235 134.452 81.5235 133.82C81.5235 133.188 81.6595 132.628 81.9315 132.14C82.2115 131.652 82.5915 131.272 83.0715 131C83.5595 130.72 84.1075 130.58 84.7155 130.58C85.3315 130.58 85.8755 130.716 86.3475 130.988C86.8195 131.26 87.1875 131.644 87.4515 132.14C87.7235 132.628 87.8595 133.2 87.8595 133.856C87.8595 133.904 87.8555 133.96 87.8475 134.024C87.8475 134.088 87.8435 134.148 87.8355 134.204H82.4235V133.376H87.2355L86.7675 133.664C86.7755 133.256 86.6915 132.892 86.5155 132.572C86.3395 132.252 86.0955 132.004 85.7835 131.828C85.4795 131.644 85.1235 131.552 84.7155 131.552C84.3155 131.552 83.9595 131.644 83.6475 131.828C83.3355 132.004 83.0915 132.256 82.9155 132.584C82.7395 132.904 82.6515 133.272 82.6515 133.688V133.88C82.6515 134.304 82.7475 134.684 82.9395 135.02C83.1395 135.348 83.4155 135.604 83.7675 135.788C84.1195 135.972 84.5235 136.064 84.9795 136.064C85.3555 136.064 85.6955 136 85.9995 135.872C86.3115 135.744 86.5835 135.552 86.8155 135.296L87.4515 136.04C87.1635 136.376 86.8035 136.632 86.3715 136.808C85.9475 136.984 85.4715 137.072 84.9435 137.072ZM91.6432 137.072C91.0032 137.072 90.5072 136.9 90.1552 136.556C89.8032 136.212 89.6272 135.72 89.6272 135.08V129.248H90.7792V135.032C90.7792 135.376 90.8632 135.64 91.0312 135.824C91.2072 136.008 91.4552 136.1 91.7752 136.1C92.1352 136.1 92.4352 136 92.6752 135.8L93.0352 136.628C92.8592 136.78 92.6472 136.892 92.3992 136.964C92.1592 137.036 91.9072 137.072 91.6432 137.072ZM88.5472 131.588V130.64H92.6032V131.588H88.5472ZM98.3759 137V135.656L98.3159 135.404V133.112C98.3159 132.624 98.1719 132.248 97.8839 131.984C97.6039 131.712 97.1799 131.576 96.6119 131.576C96.2359 131.576 95.8679 131.64 95.5079 131.768C95.1479 131.888 94.8439 132.052 94.5959 132.26L94.1159 131.396C94.4439 131.132 94.8359 130.932 95.2919 130.796C95.7559 130.652 96.2399 130.58 96.7439 130.58C97.6159 130.58 98.2879 130.792 98.7599 131.216C99.2319 131.64 99.4679 132.288 99.4679 133.16V137H98.3759ZM96.2879 137.072C95.8159 137.072 95.3999 136.992 95.0399 136.832C94.6879 136.672 94.4159 136.452 94.2239 136.172C94.0319 135.884 93.9359 135.56 93.9359 135.2C93.9359 134.856 94.0159 134.544 94.1759 134.264C94.3439 133.984 94.6119 133.76 94.9799 133.592C95.3559 133.424 95.8599 133.34 96.4919 133.34H98.5079V134.168H96.5399C95.9639 134.168 95.5759 134.264 95.3759 134.456C95.1759 134.648 95.0759 134.88 95.0759 135.152C95.0759 135.464 95.1999 135.716 95.4479 135.908C95.6959 136.092 96.0399 136.184 96.4799 136.184C96.9119 136.184 97.2879 136.088 97.6079 135.896C97.9359 135.704 98.1719 135.424 98.3159 135.056L98.5439 135.848C98.3919 136.224 98.1239 136.524 97.7399 136.748C97.3559 136.964 96.8719 137.072 96.2879 137.072ZM101.6 137V128.096H102.752V137H101.6ZM108.347 130.58C108.867 130.58 109.323 130.68 109.715 130.88C110.115 131.08 110.427 131.384 110.651 131.792C110.875 132.2 110.987 132.716 110.987 133.34V137H109.835V133.472C109.835 132.856 109.683 132.392 109.379 132.08C109.083 131.768 108.663 131.612 108.119 131.612C107.711 131.612 107.355 131.692 107.051 131.852C106.747 132.012 106.511 132.248 106.343 132.56C106.183 132.872 106.103 133.26 106.103 133.724V137H104.951V128.096H106.103V132.356L105.875 131.9C106.083 131.484 106.403 131.16 106.835 130.928C107.267 130.696 107.771 130.58 108.347 130.58ZM115.951 137.072C115.271 137.072 114.671 136.932 114.151 136.652C113.639 136.372 113.239 135.988 112.951 135.5C112.671 135.012 112.531 134.452 112.531 133.82C112.531 133.188 112.667 132.628 112.939 132.14C113.219 131.652 113.599 131.272 114.079 131C114.567 130.72 115.115 130.58 115.723 130.58C116.339 130.58 116.883 130.716 117.355 130.988C117.827 131.26 118.195 131.644 118.459 132.14C118.731 132.628 118.867 133.2 118.867 133.856C118.867 133.904 118.863 133.96 118.855 134.024C118.855 134.088 118.851 134.148 118.843 134.204H113.431V133.376H118.243L117.775 133.664C117.783 133.256 117.699 132.892 117.523 132.572C117.347 132.252 117.103 132.004 116.791 131.828C116.487 131.644 116.131 131.552 115.723 131.552C115.323 131.552 114.967 131.644 114.655 131.828C114.343 132.004 114.099 132.256 113.923 132.584C113.747 132.904 113.659 133.272 113.659 133.688V133.88C113.659 134.304 113.755 134.684 113.947 135.02C114.147 135.348 114.423 135.604 114.775 135.788C115.127 135.972 115.531 136.064 115.987 136.064C116.363 136.064 116.703 136 117.007 135.872C117.319 135.744 117.591 135.552 117.823 135.296L118.459 136.04C118.171 136.376 117.811 136.632 117.379 136.808C116.955 136.984 116.479 137.072 115.951 137.072ZM122.291 137.072C121.763 137.072 121.259 137 120.779 136.856C120.307 136.712 119.935 136.536 119.663 136.328L120.143 135.416C120.415 135.6 120.751 135.756 121.151 135.884C121.551 136.012 121.959 136.076 122.375 136.076C122.911 136.076 123.295 136 123.527 135.848C123.767 135.696 123.887 135.484 123.887 135.212C123.887 135.012 123.815 134.856 123.671 134.744C123.527 134.632 123.335 134.548 123.095 134.492C122.863 134.436 122.603 134.388 122.315 134.348C122.027 134.3 121.739 134.244 121.451 134.18C121.163 134.108 120.899 134.012 120.659 133.892C120.419 133.764 120.227 133.592 120.083 133.376C119.939 133.152 119.867 132.856 119.867 132.488C119.867 132.104 119.975 131.768 120.191 131.48C120.407 131.192 120.711 130.972 121.103 130.82C121.503 130.66 121.975 130.58 122.519 130.58C122.935 130.58 123.355 130.632 123.779 130.736C124.211 130.832 124.563 130.972 124.835 131.156L124.343 132.068C124.055 131.876 123.755 131.744 123.443 131.672C123.131 131.6 122.819 131.564 122.507 131.564C122.003 131.564 121.627 131.648 121.379 131.816C121.131 131.976 121.007 132.184 121.007 132.44C121.007 132.656 121.079 132.824 121.223 132.944C121.375 133.056 121.567 133.144 121.799 133.208C122.039 133.272 122.303 133.328 122.591 133.376C122.879 133.416 123.167 133.472 123.455 133.544C123.743 133.608 124.003 133.7 124.235 133.82C124.475 133.94 124.667 134.108 124.811 134.324C124.963 134.54 125.039 134.828 125.039 135.188C125.039 135.572 124.927 135.904 124.703 136.184C124.479 136.464 124.163 136.684 123.755 136.844C123.347 136.996 122.859 137.072 122.291 137.072ZM126.539 134.348L126.323 128.6H127.679L127.451 134.348H126.539ZM127.007 137.072C126.783 137.072 126.595 136.996 126.443 136.844C126.291 136.692 126.215 136.512 126.215 136.304C126.215 136.08 126.291 135.896 126.443 135.752C126.595 135.608 126.783 135.536 127.007 135.536C127.231 135.536 127.415 135.608 127.559 135.752C127.703 135.896 127.775 136.08 127.775 136.304C127.775 136.512 127.703 136.692 127.559 136.844C127.415 136.996 127.231 137.072 127.007 137.072Z" fill="black"/>
<g clip-path="url(#clip0_2_4)">
<path d="M79 59C69 62 69 54 65 53M93 65V57.26C93.075 56.3063 92.9462 55.3476 92.622 54.4476C92.2979 53.5476 91.7859 52.7268 91.12 52.04C97.4 51.34 104 48.96 104 38.04C103.999 35.2477 102.925 32.5624 101 30.54C101.912 28.097 101.847 25.3967 100.82 23C100.82 23 98.46 22.3 93 25.96C88.416 24.7176 83.584 24.7176 79 25.96C73.54 22.3 71.18 23 71.18 23C70.1528 25.3967 70.0883 28.097 71 30.54C69.0603 32.5774 67.985 35.2869 68 38.1C68 48.94 74.6 51.32 80.88 52.1C80.222 52.7799 79.7145 53.5908 79.3906 54.4798C79.0667 55.3689 78.9336 56.3161 79 57.26V65" stroke="#1E1E1E" stroke-width="4" stroke-linecap="round" stroke-linejoin="round"/>
</g>
<defs>
<clipPath id="clip0_2_4">
<rect width="48" height="48" fill="white" transform="translate(61 21)"/>
</clipPath>
</defs>
</svg>
